<svg xmlns="http://www.w3.org/2000/svg" xmlns:xlink="http://www.w3.org/1999/xlink" viewBox="0 0 34.1 34"><defs><path id="a" d="M22.5 25.8c0-.6.5-1.1 1.1-1.1.6 0 1.1.5 1.1 1.1 0 .6-.5 1.1-1.1 1.1-.6 0-1.1-.5-1.1-1.1m-1.3-8.4c1.7.4 3.3 1.2 4.7 2.1-.3 1.5-.9 2.8-1.6 4.1-.2-.1-.4-.1-.6-.1-1.2 0-2.2 1-2.2 2.2 0 1.2 1 2.2 2.2 2.2s2.2-1 2.2-2.2c0-.6-.2-1.2-.7-1.6.7-1.2 1.3-2.6 1.6-3.9 3.5 3 5.4 7.8 4.6 12.7H2.7C1.9 27.8 4 22.8 7.9 19.8c.2 1.5.7 3 1.4 4.4-1.7 1.1-2.5 3.2-1.8 5.2l.9 2.6 2.1-.7-.4-1-1 .4-.5-1.6c-.6-1.7.3-3.6 2-4.2 1.7-.6 3.6.3 4.2 2l.5 1.6-1 .4.4 1 2.1-.7-.9-2.6c-.8-2.2-3.2-3.4-5.5-2.7-.7-1.5-1.2-3-1.3-4.7 1.2-.8 2.6-1.4 4.1-1.7 1.2 1.1 2.6 1.8 4.1 1.8 1.3-.1 2.7-.8 3.9-1.9M9.9 8.2v-.3l2.5-1.8c1.5-1 3.5-1.1 5-.2 0 0 3.1 2.3 6.5.4.2.6.3 1.2.3 1.9 0 3.9-3.2 9.9-7.1 9.9-4 0-7.2-6-7.2-9.9m7.2-7.1c2.9 0 5.4 1.7 6.5 4.2C20.8 7.2 18 5 18 5c-1.9-1.1-4.4-1-6.2.3l-1.7 1.2c.8-3.1 3.6-5.4 7-5.4M8.8 8.2c0 2.6 1.2 6 3.2 8.3C0 20.6 1.3 31.7 1.8 34h30.5c1.8-7.8-3-15.4-10.3-17.5 2-2.3 3.2-5.7 3.2-8.3C25.2 3.7 21.5 0 17 0c-4.5 0-8.2 3.7-8.2 8.2"/></defs><clipPath id="b"><use xlink:href="#a" overflow="visible"/></clipPath><linearGradient id="c" gradientUnits="userSpaceOnUse" x1="0" y1="34.016" x2="1" y2="34.016" gradientTransform="translate(1.48 -1045.324) scale(31.2303)"><stop offset="0" stop-color="#2472b8"/><stop offset="1" stop-color="#00aad0"/></linearGradient><path clip-path="url(#b)" fill="url(#c)" d="M0 0h34.1v34H0z"/></svg>