<svg xmlns="http://www.w3.org/2000/svg" xmlns:xlink="http://www.w3.org/1999/xlink" viewBox="0 0 32.2 42.6"><defs><path id="a" d="M1.7 16.1c0-8 6.5-14.4 14.4-14.4 8 0 14.4 6.5 14.4 14.4 0 7.1-11.6 21-14.4 24.3-2.8-3.3-14.4-17.2-14.4-24.3m-1.7 0c0 8.7 14.9 25.4 15.5 26.1.3.3.8.4 1.2.1l.1-.1c.6-.7 15.5-17.5 15.5-26.1C32.2 7.2 25 0 16.1 0 7.2 0 0 7.2 0 16.1"/></defs><clipPath id="b"><use xlink:href="#a" overflow="visible"/></clipPath><linearGradient id="c" gradientUnits="userSpaceOnUse" x1="0" y1="42.615" x2="1" y2="42.615" gradientTransform="translate(.16 -1327.14) scale(31.6425)"><stop offset="0" stop-color="#2376bc"/><stop offset="1" stop-color="#00adcf"/></linearGradient><path clip-path="url(#b)" fill="url(#c)" d="M0 0h32.2v42.6H0z"/><defs><path id="d" d="M9.3 16.8c0-3.9 3.2-7.1 7.1-7.1s7.1 3.2 7.1 7.1c0 3.9-3.2 7.1-7.1 7.1-3.9 0-7.1-3.2-7.1-7.1m-1.6 0c0 4.8 3.9 8.7 8.7 8.7 4.8 0 8.7-3.9 8.7-8.7 0-4.8-3.9-8.7-8.7-8.7-4.8 0-8.7 3.9-8.7 8.7"/></defs><clipPath id="e"><use xlink:href="#d" overflow="visible"/></clipPath><linearGradient id="f" gradientUnits="userSpaceOnUse" x1="0" y1="42.615" x2="1" y2="42.615" gradientTransform="translate(.16 -1331.633) scale(31.6425)"><stop offset="0" stop-color="#2376bc"/><stop offset="1" stop-color="#00adcf"/></linearGradient><path clip-path="url(#e)" fill="url(#f)" d="M7.7 8.1h17.5v17.5H7.7z"/></svg>