<svg xmlns="http://www.w3.org/2000/svg" xmlns:xlink="http://www.w3.org/1999/xlink" viewBox="0 0 31.5 34.7" enable-background="new 0 0 31.5 34.7"><defs><path id="a" d="M0-1.8h31.5v36.5H0z"/></defs><clipPath id="b"><use xlink:href="#a" overflow="visible"/></clipPath><g clip-path="url(#b)"><defs><path id="c" d="M0-1.8h31.5v36.5H0z"/></defs><clipPath id="e"><use xlink:href="#c" overflow="visible"/></clipPath><defs><filter id="d" filterUnits="userSpaceOnUse" x="0" y="-1.8" width="31.5" height="36.5"><feColorMatrix values="1 0 0 0 0 0 1 0 0 0 0 0 1 0 0 0 0 0 1 0"/></filter></defs><mask maskUnits="userSpaceOnUse" x="0" y="-1.8" width="31.5" height="36.5" id="f"><g filter="url(#d)"><path clip-path="url(#e)" d="M0-1.8h31.5v36.5H0z"/><path d="M7.4 22.1v-3.4c0-.3.3-.6.6-.6s.6.3.6.6v3.9l-1.2-.5zm-2.1-2v-4c0-.3.3-.6.6-.6s.6.3.6.6v5.1l-1.2-1.1zM3.1 14c0-.3.3-.6.6-.6s.6.3.6.6v5.1c-.3-.2-.6-.3-.9-.3h-.2V14zm-1 0v.6c-.2-.1-.3-.1-.5-.1-.4 0-.8.1-1.2.4-.2.3-.4.7-.4 1.2V22c0 .1 0 .2.1.3L3.3 27l.2.2 4.5 2v5c0 .3.2.5.5.5s.5-.2.5-.5v-5.3c0-.2-.1-.4-.3-.5L4 26.3l-3-4.5v-5.7c0-.3.3-.6.6-.6s.5.3.5.6v3.2c-.2.3-.4.6-.4 1s.2.8.4 1.1L5 24.3c.2.2.6.2.7 0 .2-.2.1-.5 0-.7l-2.8-2.9c-.2-.2-.2-.6 0-.8.2-.2.6-.2.8 0l2.7 2.8c.1.1.1.2.2.2l5.1 2.1c.6.3 1 .8 1 1.5v7.6c0 .3.2.5.5.5s.5-.2.5-.5v-7.6c0-1.1-.6-2-1.6-2.4L9.5 23v-4.3c0-.9-.7-1.6-1.6-1.6-.2 0-.4 0-.6.1V16c0-.9-.7-1.6-1.6-1.6-.2 0-.4 0-.6.1V14c0-.9-.7-1.6-1.6-1.6s-1.4.7-1.4 1.6m20.2 4.8c0-.3.3-.6.6-.6s.6.3.6.6v3.4l-1.1.5v-3.9zm2.1-2.7c0-.3.3-.6.6-.6s.6.3.6.6v4l-1.1 1.2v-5.2zm2.2-2.1c0-.3.3-.6.6-.6s.6.3.6.6v4.8h-.2c-.3 0-.7.1-.9.3V14zm-1 0v.7c-.2-.1-.4-.1-.6-.1-.9 0-1.6.7-1.6 1.6v1.2c-.2-.1-.4-.1-.6-.1-.9 0-1.6.7-1.6 1.6V23l-2.6 1.1c-1 .4-1.6 1.4-1.6 2.4v7.6c0 .3.2.5.5.5s.5-.2.5-.5v-7.6c0-.7.4-1.3 1-1.5l5.1-2.1c.1 0 .2-.1.2-.2l2.7-2.8c.2-.2.6-.2.8 0 .2.2.2.6 0 .8L25 23.6c-.2.2-.2.5 0 .7.2.2.5.2.7 0l2.8-2.9c.3-.3.5-.7.4-1.1 0-.4-.1-.7-.4-1v-3.2c0-.3.2-.6.5-.6s.6.2.6.6v5.7l-3 4.5-4.7 2.1c-.2.1-.3.3-.3.5v5.3c0 .3.2.5.5.5s.5-.2.5-.5v-5l4.5-2c.1 0 .2-.1.2-.2l3.2-4.8c.1-.1.1-.2.1-.3V16c0-.4-.2-.8-.5-1.1-.3-.3-.7-.5-1.2-.4-.2 0-.3 0-.5.1V14c0-.9-.7-1.6-1.6-1.6s-1.2.7-1.2 1.6M6.5 9.7c-.7-1.3-.9-2.9-.6-4.3.3-1.3 1-2.5 2-3.1.6-.4 1.3-.6 2.1-.6.3 0 .6 0 1 .1 1.3.3 2.7 1.2 4 2.7.2.2.5.2.7 0 1.3-1.5 2.7-2.4 4-2.7 1.1-.3 2.2-.1 3.1.5 1 .7 1.7 1.8 2 3.1.3 1.4.1 2.9-.6 4.3-1.4 2.9-3.8 4.8-5.5 5.9-1.6 1-2.9 1.5-3.3 1.7-1-.4-6.4-2.6-8.9-7.6M19.6.8c-1.4.3-2.8 1.2-4.2 2.6C14 2 12.6 1.2 11.2.8 9.8.5 8.5.7 7.3 1.5c-1.2.8-2 2.1-2.3 3.7-.4 1.6-.1 3.4.6 4.9 1.5 3.1 4.1 5.1 5.9 6.3 2 1.3 3.6 1.8 3.7 1.8h.3c.1 0 1.7-.6 3.7-1.8 1.9-1.2 4.4-3.2 5.9-6.3.8-1.5 1-3.3.6-4.9-.3-1.6-1.2-2.9-2.4-3.7-.8-.5-1.7-.8-2.6-.8-.3 0-.7 0-1.1.1" clip-path="url(#e)" fill="#fff"/></g></mask><g clip-path="url(#e)" mask="url(#f)"><defs><path id="g" d="M0-1.8h31.5v36.5H0z"/></defs><clipPath id="h"><use xlink:href="#g" overflow="visible"/></clipPath><g clip-path="url(#h)"><defs><path id="i" d="M0-1.8h31.5v36.5H0z"/></defs><clipPath id="j"><use xlink:href="#i" overflow="visible"/></clipPath><linearGradient id="k" gradientUnits="userSpaceOnUse" x1="0" y1="34.693" x2="1" y2="34.693" gradientTransform="translate(0 -1075.717) scale(31.4804)"><stop offset="0" stop-color="#ea5643"/><stop offset=".001" stop-color="#ea5643"/><stop offset="1" stop-color="#ac3c66"/></linearGradient><path clip-path="url(#j)" fill="url(#k)" d="M0-1.8h31.5v36.5H0z"/></g></g></g></svg>