<svg xmlns="http://www.w3.org/2000/svg" xmlns:xlink="http://www.w3.org/1999/xlink" viewBox="0 0 33.8 33.8"><defs><path id="a" d="M13.4 26.2c0-.4.4-.8.8-.8h5.3c.4 0 .8.4.8.8v6.5h-2.9v-2.5c0-.3-.2-.5-.5-.5s-.5.2-.5.5v2.5h-2.9v-6.5zm-11-3.5h6v9.9h-6v-9.9zm23 0h6v9.9h-6v-9.9zm-23-9.3h6v8.2h-6v-8.2zm23 0h6v8.2h-6v-8.2zM20 7.8h3.5c.4 0 .8.4.8.8v24.2h-2.9v-6.5c0-1-.8-1.9-1.9-1.9h-5.3c-1 0-1.9.8-1.9 1.9v6.5H9.4V8.5c0-.4.4-.8.8-.8h3.4c.9.8 2 1.3 3.2 1.3 1.3.1 2.4-.4 3.2-1.2m-5.7-1c-.6-.6-.9-1.5-.9-2.3 0-1.9 1.5-3.4 3.4-3.4s3.4 1.5 3.4 3.4c0 .8-.3 1.6-.9 2.3-.5.8-1.4 1.2-2.4 1.2s-1.9-.4-2.6-1.2m-1.9-2.3c0 .7.2 1.3.4 1.9l.1.2h-2.6c-1 0-1.9.8-1.9 1.9v3.8H.5c-.3 0-.5.2-.5.5s.2.5.5.5h.8v8.2H.5c-.3 0-.5.2-.5.5s.2.5.5.5h.8V33c0 .3.2.5.5.5h30c.3 0 .5-.2.5-.5V22.7h.8c.3 0 .5-.2.5-.5s-.2-.5-.5-.5h-.8v-8.2h.8c.3 0 .5-.2.5-.5s-.2-.5-.5-.5h-7.8v-4c0-1-.8-1.9-1.9-1.9h-2.6l.2-.1c.3-.6.4-1.3.4-1.9 0-2.5-2-4.5-4.5-4.5S12.4 2 12.4 4.5"/></defs><clipPath id="b"><use xlink:href="#a" overflow="visible"/></clipPath><linearGradient id="c" gradientUnits="userSpaceOnUse" x1="0" y1="33.766" x2="1" y2="33.766" gradientTransform="translate(-1.9 -1231.764) scale(36.9794)"><stop offset="0" stop-color="#2472b8"/><stop offset="1" stop-color="#00aad0"/></linearGradient><path clip-path="url(#b)" fill="url(#c)" d="M0 0h33.8v33.8H0z"/><defs><path id="d" d="M16.3 3.2V4h-.8c-.2 0-.5.2-.5.5s.2.5.5.5h.8v.8c0 .3.2.5.5.5s.5-.2.5-.5v-.7h.8c.3 0 .5-.2.5-.5s-.2-.5-.5-.5h-.8v-.9c0-.3-.2-.5-.5-.5s-.5.2-.5.5"/></defs><clipPath id="e"><use xlink:href="#d" overflow="visible"/></clipPath><linearGradient id="f" gradientUnits="userSpaceOnUse" x1="0" y1="33.766" x2="1" y2="33.766" gradientTransform="translate(-.853 -1174.515) scale(34.918)"><stop offset="0" stop-color="#2472b8"/><stop offset="1" stop-color="#00aad0"/></linearGradient><path clip-path="url(#e)" fill="url(#f)" d="M15 2.7h3.7v3.7H15z"/></svg>