<svg xmlns="http://www.w3.org/2000/svg" xmlns:xlink="http://www.w3.org/1999/xlink" viewBox="0 0 35.1 42.5"><defs><path id="a" d="M18.9 34.1c-3.1-.9-8.8-3.9-13.1-12.7C1.5 12.6 3 6.2 4.2 3.2c.4-1.1 1.5-1.7 2.6-1.7.5 0 1 .1 1.5.3 1.8 1 2.4 4 1.6 8.4l-1.9.9c-.1 0-.1.1-.2.1-.3.2-2.6 2.4.2 9.2 2.7 5.3 5.5 5.9 6.6 5.9h.5c.1 0 .1 0 .2-.1l1.8-.9c3.9 2.2 5.9 4.5 5.5 6.6-.3 1.3-1.4 2.3-2.8 2.5l-.9-.3M2.7 2.7C1.5 5.9 0 12.7 4.4 22.2 9 31.5 15.2 34.7 18.5 35.7c.4.1.9.2 1.3.2 1 0 2-.4 2.8-1.1h.1c2.5-.5 3.5.8 4.9 3.2 1.3 2 2.8 4.6 6.4 4.6h.3c.4 0 .8-.4.8-.8s-.4-.8-.8-.8v-.1c-2.9.1-4-1.7-5.3-3.8-1.1-1.9-2.4-4-5.1-4 .2-.3.3-.7.3-1 .3-2-.6-5.1-6.7-8.4-.2-.1-.5-.1-.7 0l-2.1 1.1c-.5 0-2.8-.2-5.2-5-2.1-5.1-.9-6.9-.6-7.3l2.1-.9c.2-.1.4-.3.5-.6C12.8 4.1 11 1.5 9.2.5 8.4.2 7.6 0 6.8 0h-.2C4.9 0 3.4 1.1 2.7 2.7"/></defs><clipPath id="b"><use xlink:href="#a" overflow="visible"/></clipPath><linearGradient id="c" gradientUnits="userSpaceOnUse" x1="0" y1="42.526" x2="1" y2="42.526" gradientTransform="translate(1.444 -1410.255) scale(33.6622)"><stop offset="0" stop-color="#2376bc"/><stop offset="1" stop-color="#00adcf"/></linearGradient><path clip-path="url(#b)" fill="url(#c)" d="M0 0h35.1v42.5H0z"/></svg>