<svg id="Layer_1" data-name="Layer 1" xmlns="http://www.w3.org/2000/svg" xmlns:xlink="http://www.w3.org/1999/xlink" viewBox="0 0 32.64 32.64"><defs><style>.cls-1{fill:none}</style><clipPath id="clip-path"><path class="cls-1" d="M1.26 16.33a15.06 15.06 0 1 1 15.06 15.05A15.06 15.06 0 0 1 1.26 16.33M0 16.32A16.32 16.32 0 1 0 16.32 0 16.32 16.32 0 0 0 0 16.32"/></clipPath><linearGradient id="linear-gradient" y1="32.64" x2="1" y2="32.64" gradientTransform="translate(.68 -995.88) scale(31.01)" gradientUnits="userSpaceOnUse"><stop offset="0" stop-color="#2376bc"/><stop offset="1" stop-color="#00adcf"/></linearGradient><clipPath id="clip-path-2"><path class="cls-1" d="M15.08 26h1.79v-2h-1.79zM12.65 8.16a4.15 4.15 0 0 0-1.34 3.35v.08h1.44a3.19 3.19 0 0 1 .94-2.39 3.41 3.41 0 0 1 2.45-.88 3.34 3.34 0 0 1 2.5.9 3.52 3.52 0 0 1 .88 2.55 4.42 4.42 0 0 1-.64 2.47 17.9 17.9 0 0 1-2 2.42 5.86 5.86 0 0 0-1.47 1.76 7.12 7.12 0 0 0-.28 2.35h1.53a7.08 7.08 0 0 1 .17-1.83 2.92 2.92 0 0 1 1-1.28 14.94 14.94 0 0 0 2.43-2.82 5.63 5.63 0 0 0 .86-3.09 4.75 4.75 0 0 0-1.31-3.52 4.9 4.9 0 0 0-3.62-1.3 5.11 5.11 0 0 0-3.52 1.23"/></clipPath><linearGradient id="linear-gradient-2" y1="32.65" y2="32.65" gradientTransform="translate(-.11 -1082.68) scale(33.66)" xlink:href="#linear-gradient"/></defs><g clip-path="url(#clip-path)"><path fill="url(#linear-gradient)" d="M0 0h32.64v32.64H0z"/></g><g clip-path="url(#clip-path-2)"><path fill="url(#linear-gradient-2)" d="M11.29 6.93h9.81v19.04h-9.81z"/></g></svg>