<svg xmlns="http://www.w3.org/2000/svg" xmlns:xlink="http://www.w3.org/1999/xlink" viewBox="0 0 36 34.2"><defs><path id="a" d="M8.9 21.6h1.2v1.3c0 .4-.1 1.2-.6 1.2H8.3c-.5 0-.6-.8-.6-1.2v-1.3h1.2zm19.7-1.8c0-1.6 1.3-3 3-3s3 1.3 3 3c0 1.6-1.3 3-3 3s-3-1.3-3-3m-17.4-.9c2.5-.7 4.2-3 4.3-5.6v-.1h1.2c0 3.3-2.6 6.2-6.1 6.9-.8.2-1.7.2-2.5.1-.3 0-.6-.1-.8-.1-3.5-.7-6.1-3.6-6.1-6.9H3v.1c0 2.6 1.8 4.8 4.3 5.6.7.2 1.3.3 2 .3.6.1 1.3-.1 1.9-.3M4.8 2c0-.3.3-.6.6-.6s.6.3.6.6-.3.6-.6.6c-.4 0-.6-.3-.6-.6m7.1 0c0-.3.3-.6.6-.6s.6.3.6.6-.3.6-.6.6-.6-.3-.6-.6M4.7.3c-.5.2-.9.6-1 1.1-1.5.3-2.5 1.5-2.5 3v7.7H0v1.2c0 3.7 2.7 7 6.6 8v1.5c0 1.8.9 2.4 1.8 2.4v1c0 4.4 3.3 7.9 7.3 8h.2c4.1-.1 7.3-3.6 7.3-8V14.5c.1-2.3 1.8-4.1 3.9-4.1 2.1 0 3.9 1.9 3.9 4.2v1.1c-2.3.3-3.9 2.4-3.5 4.7.3 2.3 2.4 3.9 4.7 3.5 2.3-.3 3.9-2.4 3.5-4.7-.3-1.8-1.7-3.3-3.5-3.5v-1.1c0-3-2.3-5.4-5.1-5.4-2.7 0-5 2.4-5.1 5.3v11.7c0 3.8-2.8 6.8-6.3 6.8-3.4 0-6.3-3.1-6.3-6.8v-1c.9 0 1.8-.6 1.8-2.4v-1.5c3.8-1 6.5-4.3 6.5-8v-1.2h-1.2V4.3c0-1.4-1-2.7-2.4-2.9C13.9.5 12.9 0 12 .3c-.9.3-1.4 1.3-1.1 2.2.3.9 1.3 1.4 2.2 1.1.5-.2.9-.5 1.1-1 .8.2 1.3.9 1.3 1.7V12h-1.2v1.3c0 2.1-1.4 3.9-3.4 4.4-1.1.3-2.2.3-3.3 0-2-.6-3.4-2.4-3.4-4.4V12H2.4V4.4c0-.8.5-1.5 1.3-1.7.4.9 1.4 1.3 2.3 1 1-.4 1.4-1.4 1-2.4C6.7.6 6 .2 5.3.2c-.1 0-.4 0-.6.1"/></defs><clipPath id="b"><use xlink:href="#a" overflow="visible"/></clipPath><linearGradient id="c" gradientUnits="userSpaceOnUse" x1="0" y1="34.214" x2="1" y2="34.214" gradientTransform="translate(-1.653 -1300.382) scale(38.5073)"><stop offset="0" stop-color="#2472b8"/><stop offset="1" stop-color="#00aad0"/></linearGradient><path clip-path="url(#b)" fill="url(#c)" d="M0 0h36v34.2H0z"/><defs><path id="d" d="M31 19.8c0-.3.3-.6.6-.6s.6.3.6.6-.3.6-.6.6c-.4 0-.6-.2-.6-.6m-1.2 0c0 1 .8 1.8 1.8 1.8s1.8-.8 1.8-1.8-.8-1.8-1.8-1.8-1.8.9-1.8 1.8"/></defs><clipPath id="e"><use xlink:href="#d" overflow="visible"/></clipPath><linearGradient id="f" gradientUnits="userSpaceOnUse" x1="0" y1="34.214" x2="1" y2="34.214" gradientTransform="translate(-1.653 -1297.64) scale(38.5073)"><stop offset="0" stop-color="#2472b8"/><stop offset="1" stop-color="#00aad0"/></linearGradient><path clip-path="url(#e)" fill="url(#f)" d="M29.8 18.1h3.6v3.6h-3.6z"/></svg>